<mxfile host="app.diagrams.net" modified="2022-03-09T09:47:43.632Z" agent="5.0 (Windows NT 10.0; WOW64) AppleWebKit/537.36 (KHTML, like Gecko) Chrome/99.0.4844.51 Safari/537.36" etag="qTDea24pVfCrWoHYvQIq" version="16.6.6" type="github">
  <diagram id="8LqcWbh-K-a9OpP2giRa" name="Page-1">
    <mxGraphModel dx="948" dy="471" grid="1" gridSize="10" guides="1" tooltips="1" connect="1" arrows="1" fold="1" page="1" pageScale="1" pageWidth="827" pageHeight="1169" math="1" shadow="0">
      <root>
        <mxCell id="0" />
        <mxCell id="1" parent="0" />
        <mxCell id="VyQ1B00feMUYjvhqdVCF-3" value="" style="shape=datastore;whiteSpace=wrap;html=1;" vertex="1" parent="1">
          <mxGeometry x="354" y="430" width="60" height="60" as="geometry" />
        </mxCell>
        <mxCell id="VyQ1B00feMUYjvhqdVCF-6" value="" style="verticalLabelPosition=bottom;verticalAlign=top;html=1;shape=mxgraph.basic.rounded_frame;dx=10;" vertex="1" parent="1">
          <mxGeometry x="70" y="150" width="210" height="190" as="geometry" />
        </mxCell>
        <mxCell id="VyQ1B00feMUYjvhqdVCF-9" value="" style="shape=waypoint;sketch=0;fillStyle=solid;size=6;pointerEvents=1;points=[];fillColor=none;resizable=0;rotatable=0;perimeter=centerPerimeter;snapToPoint=1;" vertex="1" parent="1">
          <mxGeometry x="345" y="65" width="40" height="40" as="geometry" />
        </mxCell>
        <mxCell id="VyQ1B00feMUYjvhqdVCF-11" value="" style="shape=waypoint;sketch=0;fillStyle=solid;size=6;pointerEvents=1;points=[];fillColor=none;resizable=0;rotatable=0;perimeter=centerPerimeter;snapToPoint=1;" vertex="1" parent="1">
          <mxGeometry x="345" y="40" width="40" height="40" as="geometry" />
        </mxCell>
        <mxCell id="VyQ1B00feMUYjvhqdVCF-13" value="" style="shape=waypoint;sketch=0;fillStyle=solid;size=6;pointerEvents=1;points=[];fillColor=none;resizable=0;rotatable=0;perimeter=centerPerimeter;snapToPoint=1;" vertex="1" parent="1">
          <mxGeometry x="345" y="90" width="40" height="40" as="geometry" />
        </mxCell>
        <mxCell id="VyQ1B00feMUYjvhqdVCF-14" value="" style="verticalLabelPosition=bottom;verticalAlign=top;html=1;shape=mxgraph.basic.rect;fillColor2=none;strokeWidth=1;size=20;indent=5;fillColor=none;" vertex="1" parent="1">
          <mxGeometry x="354" y="50" width="60" height="20" as="geometry" />
        </mxCell>
        <mxCell id="VyQ1B00feMUYjvhqdVCF-16" value="" style="verticalLabelPosition=bottom;verticalAlign=top;html=1;shape=mxgraph.basic.rect;fillColor2=none;strokeWidth=1;size=20;indent=0;fillColor=none;" vertex="1" parent="1">
          <mxGeometry x="354" y="75" width="60" height="20" as="geometry" />
        </mxCell>
        <mxCell id="VyQ1B00feMUYjvhqdVCF-17" value="" style="verticalLabelPosition=bottom;verticalAlign=top;html=1;shape=mxgraph.basic.rect;fillColor2=none;strokeWidth=1;size=20;indent=5;fillColor=none;" vertex="1" parent="1">
          <mxGeometry x="354" y="100" width="60" height="20" as="geometry" />
        </mxCell>
        <mxCell id="VyQ1B00feMUYjvhqdVCF-18" value="&lt;font face=&quot;Comic Sans MS&quot;&gt;用户设备1&lt;/font&gt;" style="text;html=1;resizable=0;autosize=1;align=center;verticalAlign=middle;points=[];fillColor=none;strokeColor=none;rounded=0;" vertex="1" parent="1">
          <mxGeometry x="80" y="170" width="70" height="20" as="geometry" />
        </mxCell>
        <mxCell id="VyQ1B00feMUYjvhqdVCF-19" value="&lt;font style=&quot;font-size: 14px&quot;&gt;决策器&lt;/font&gt;" style="rounded=1;whiteSpace=wrap;html=1;fontFamily=Comic Sans MS;fillColor=none;" vertex="1" parent="1">
          <mxGeometry x="90" y="230" width="70" height="40" as="geometry" />
        </mxCell>
        <mxCell id="VyQ1B00feMUYjvhqdVCF-25" value="$$(o_{1}^{t},o_{1}^{t+1},a_{1}^{t},h_{1}^{t-1},h_{1}^{t})$$" style="rounded=0;whiteSpace=wrap;html=1;fontFamily=Comic Sans MS;fontSize=14;shadow=0;sketch=0;glass=0;strokeColor=#F7F7F7;" vertex="1" parent="1">
          <mxGeometry x="204" y="230" width="150" height="40" as="geometry" />
        </mxCell>
        <mxCell id="VyQ1B00feMUYjvhqdVCF-27" value="" style="verticalLabelPosition=bottom;verticalAlign=top;html=1;shape=mxgraph.basic.rounded_frame;dx=10;" vertex="1" parent="1">
          <mxGeometry x="530" y="150" width="210" height="190" as="geometry" />
        </mxCell>
        <mxCell id="VyQ1B00feMUYjvhqdVCF-28" value="&lt;font face=&quot;Comic Sans MS&quot;&gt;用户设备n&lt;/font&gt;" style="text;html=1;resizable=0;autosize=1;align=center;verticalAlign=middle;points=[];fillColor=none;strokeColor=none;rounded=0;" vertex="1" parent="1">
          <mxGeometry x="540" y="170" width="70" height="20" as="geometry" />
        </mxCell>
        <mxCell id="VyQ1B00feMUYjvhqdVCF-29" value="$$(o_{n}^{t},o_{n}^{t+1},a_{n}^{t},h_{n}^{t-1},h_{n}^{t})$$" style="rounded=0;whiteSpace=wrap;html=1;fontFamily=Comic Sans MS;fontSize=14;shadow=0;sketch=0;glass=0;strokeColor=#F7F7F7;" vertex="1" parent="1">
          <mxGeometry x="430" y="230" width="150" height="40" as="geometry" />
        </mxCell>
        <mxCell id="VyQ1B00feMUYjvhqdVCF-30" value="$$(o^{t},o^{t+1},a^{t},h^{t-1},h^{t},r^{t})$$" style="rounded=0;whiteSpace=wrap;html=1;fontFamily=Comic Sans MS;fontSize=14;shadow=0;sketch=0;glass=0;strokeColor=#1A1A1A;" vertex="1" parent="1">
          <mxGeometry x="300" y="340" width="180" height="40" as="geometry" />
        </mxCell>
        <mxCell id="VyQ1B00feMUYjvhqdVCF-31" value="" style="endArrow=classic;html=1;rounded=0;fontFamily=Helvetica;fontSize=14;" edge="1" parent="1">
          <mxGeometry width="50" height="50" relative="1" as="geometry">
            <mxPoint x="383.67" y="390" as="sourcePoint" />
            <mxPoint x="383.67" y="420" as="targetPoint" />
          </mxGeometry>
        </mxCell>
        <mxCell id="VyQ1B00feMUYjvhqdVCF-35" value="&lt;font style=&quot;font-size: 14px&quot;&gt;决策器&lt;/font&gt;" style="rounded=1;whiteSpace=wrap;html=1;fontFamily=Comic Sans MS;fillColor=none;" vertex="1" parent="1">
          <mxGeometry x="650" y="230" width="70" height="40" as="geometry" />
        </mxCell>
      </root>
    </mxGraphModel>
  </diagram>
</mxfile>
